<svg xmlns="http://www.w3.org/2000/svg" width="144" height="22" viewBox="0 0 144 22">
  <g fill="none" fill-rule="evenodd" transform="translate(-1 -1)">
    <polygon fill="#FFF" fill-rule="nonzero" points="5.065 19.174 5.065 1 1 1 1 23 18.217 23 18.217 19.174"/>
    <path fill="#00D4FF" fill-rule="nonzero" d="M29.8953962,11.1093712 L29.8953962,14.9021604 L35.9399274,14.9021604 L35.9399274,17.2055579 C34.5684491,18.6470668 32.6338172,19.5448676 30.4905391,19.5448676 C26.3307462,19.5448676 22.9589863,16.1636303 22.9589863,11.9918495 C22.9589863,7.82054754 26.3307462,4.43883141 30.4905391,4.43883141 C32.9295981,4.43883141 35.0979424,5.60142352 36.4930546,7.39295497 L39.5611555,5.0419141 C37.4620416,2.36718613 34.1795652,0.646042254 30.4905391,0.646042254 C24.1530916,0.646042254 19.0154788,5.72567914 19.0154788,11.9918495 C19.0154788,18.2580198 24.1530916,23.3376567 30.4905391,23.3376567 C34.3741265,23.3376567 37.8072388,21.4300097 39.883435,18.5106011 L39.883435,11.1093712 L29.8953962,11.1093712 Z"/>
    <polygon fill="#8000FF" fill-rule="nonzero" points="61 1 41.265 1 41.265 4.785 49.159 4.785 49.159 23 53.106 23 53.106 4.785 61 4.785"/>
    <polygon fill="#F0A" fill-rule="nonzero" points="82.053 1.006 75 10.164 67.947 1 64 1 64 22.994 67.947 22.994 67.947 7.476 75 16.67 82.053 7.476 82.053 23 86 23 86 1.006"/>
    <g transform="translate(90 1)">
      <polygon fill="#FF0" fill-rule="nonzero" points="55 0 55 22 4 22 4 0"/>
      <rect width="4" height="4" y="9" fill="#FF0"/>
      <rect width="4" height="4" x="4" y="9" fill="#000"/>
      <polygon fill="#000" fill-rule="nonzero" points="21.676 4.004 21.676 9.527 14.324 9.527 14.324 4 12 4 12 16.996 14.324 16.996 14.324 11.859 21.676 11.859 21.676 17 24 17 24 4.004"/>
      <path fill="#000" fill-rule="nonzero" d="M34.5511114 8L34.5511114 13.2025678C34.5511114 14.6194638 33.4127347 15.7668986 32 15.7668986 30.5872653 15.7668986 29.4488886 14.6194638 29.4488886 13.2025678L29.4488886 8.00512489 27 8.00512489 27 13.7989427C27 16.120246 28.9575511 18 31.3877778 18 32.6325553 18 33.7536627 17.5063926 34.5511114 16.7131143L34.5511114 17.8022873 37 17.8022873 37 8 34.5511114 8zM44.4545935 7.82146154C43.2378564 7.82146154 42.1354277 8.35238462 41.3212777 9.22011538L41.3212777 4 39 4 39 17.8048077 41.3212777 17.8048077 41.3212777 16.6035C42.1354277 17.4690769 43.2378564 18 44.4545935 18 46.9720169 18 49 15.7271538 49 12.9204231 49 10.0943077 46.9720169 7.82146154 44.4545935 7.82146154zM43.9709609 15.7710385C42.4712249 15.7710385 41.2631996 14.4938077 41.2631996 12.9161154 41.2631996 11.3279231 42.4712249 10.0504231 43.9709609 10.0504231 45.4709609 10.0504231 46.6789863 11.3279231 46.6789863 12.9161154 46.6789863 14.4938077 45.4709609 15.7710385 43.9709609 15.7710385z"/>
    </g>
  </g>
</svg>
