<svg xmlns="http://www.w3.org/2000/svg" width="72" height="72" viewBox="0 0 72 72">
  <g fill="none" fill-rule="evenodd" transform="translate(0 -1)">
    <path fill="#FFF" fill-rule="nonzero" d="M52.95,20.05 C48.6,15.7 42.63,13 36,13 C22.74,13 12.03,23.74 12.03,37 C12.03,50.26 22.74,61 36,61 C47.19,61 56.52,53.35 59.19,43 L52.95,43 C50.49,49.99 43.83,55 36,55 C26.07,55 18,46.93 18,37 C18,27.07 26.07,19 36,19 C40.98,19 45.42,21.07 48.66,24.34 L39,34 L60,34 L60,13 L52.95,20.05 Z"/>
    <polygon points="0 1 72 1 72 73 0 73"/>
  </g>
</svg>
