<svg xmlns="http://www.w3.org/2000/svg" xmlns:xlink="http://www.w3.org/1999/xlink" width="40" height="40" viewBox="0 0 40 40">
  <defs>
    <path id="service-twitter-white-24-a" d="M2.5,31.2753063 C3.08851214,31.3433073 3.6873514,31.3780955 4.29450602,31.3780955 C7.81887292,31.3780955 11.0625297,30.2009425 13.6370691,28.2261558 C10.3452638,28.1666877 7.56713242,26.037914 6.60992843,23.1125569 C7.0691503,23.1985428 7.54044284,23.2446207 8.02514723,23.2446207 C8.71129766,23.2446207 9.37585501,23.1546965 10.007151,22.9864005 C6.56566931,22.310066 3.97275565,19.3340362 3.97275565,15.7664763 C3.97275565,15.7354951 3.97275565,15.7046452 3.97329212,15.6739266 C4.98763061,16.2254176 6.14748772,16.5566273 7.38070766,16.5948286 C5.36222369,15.2744534 4.03404782,13.0207049 4.03404782,10.4662028 C4.03404782,9.1168155 4.40501969,7.85197004 5.05254398,6.76447863 C8.76279918,11.2192026 14.3057842,14.1505985 20.5578539,14.4576533 C20.4296365,13.9187648 20.3629796,13.3567717 20.3629796,12.7796819 C20.3629796,8.71340397 23.7312325,5.41666667 27.8858225,5.41666667 C30.0494227,5.41666667 32.0044686,6.31091962 33.3767695,7.74196065 C35.0902679,7.41166992 36.7002268,6.79887298 38.1536694,5.95516133 C37.5919809,7.67448472 36.3992648,9.11747188 34.846038,10.0287907 C36.3677469,9.85078031 37.8175683,9.45498279 39.1666667,8.86936 C38.1580953,10.3459538 36.882628,11.6428307 35.4129571,12.6809623 C35.4274419,12.9966813 35.4346843,13.3142383 35.4346843,13.6335018 C35.4346843,23.3635568 27.8682529,34.5833333 14.0315118,34.5833333 C9.78330712,34.5833333 5.82909031,33.3644345 2.5,31.2753063 Z"/>
  </defs>
  <g fill="none" fill-rule="evenodd">
    <mask id="service-twitter-white-24-b" fill="#fff">
      <use xlink:href="#service-twitter-white-24-a"/>
    </mask>
    <rect width="40" height="40" fill="#FFF" mask="url(#service-twitter-white-24-b)"/>
  </g>
</svg>
